<svg xmlns="http://www.w3.org/2000/svg" xmlns:xlink="http://www.w3.org/1999/xlink" width="500" zoomAndPan="magnify" viewBox="0 0 375 374.999991" height="500" preserveAspectRatio="xMidYMid meet" version="1.0"><defs><clipPath id="c6a21d017e"><path d="M 84 199 L 324 199 L 324 326.59375 L 84 326.59375 Z M 84 199 " clip-rule="nonzero"/></clipPath><clipPath id="b2a085f4ef"><path d="M 46.761719 48.34375 L 323 48.34375 L 323 257 L 46.761719 257 Z M 46.761719 48.34375 " clip-rule="nonzero"/></clipPath></defs><path fill="#0a3069" d="M 245.640625 274.332031 C 257.574219 266.066406 267.789062 255.355469 275.507812 242.734375 L 269.070312 231.574219 C 255.359375 235.171875 240.757812 237.046875 225.53125 238.476562 L 245.640625 274.332031 " fill-opacity="1" fill-rule="nonzero"/><path fill="#0a3069" d="M 185.503906 169.101562 L 198.703125 191.976562 C 201.621094 191.855469 204.554688 191.742188 207.503906 191.625 C 219.960938 191.136719 232.542969 190.640625 244.886719 189.667969 L 185.503906 86.75 L 118.195312 203.402344 C 134.128906 197.621094 152.179688 194.96875 171.433594 193.484375 L 185.503906 169.101562 " fill-opacity="1" fill-rule="nonzero"/><g clip-path="url(#c6a21d017e)"><path fill="#0a3069" d="M 294.332031 223 C 279.390625 268.855469 236.320312 301.992188 185.507812 301.992188 C 159.371094 301.992188 135.285156 293.222656 116.019531 278.46875 C 125.761719 257.457031 154.125 244.753906 154.125 244.753906 C 130.308594 246.308594 95.144531 270.582031 84.992188 283.140625 C 110.261719 309.714844 145.949219 326.28125 185.507812 326.28125 C 258.15625 326.28125 317.753906 270.402344 323.734375 199.257812 C 315.371094 209.738281 305.398438 217.367188 294.332031 223 " fill-opacity="1" fill-rule="nonzero"/></g><path fill="#80ccff" d="M 327.996094 175.269531 C 242.460938 230.175781 75.964844 153.429688 69.273438 288.1875 C 139.980469 191.917969 283.613281 271.851562 327.996094 175.269531 " fill-opacity="1" fill-rule="nonzero"/><g clip-path="url(#b2a085f4ef)"><path fill="#80ccff" d="M 185.507812 48.65625 C 108.886719 48.65625 46.777344 110.804688 46.777344 187.46875 C 46.777344 212.78125 53.546875 236.503906 65.375 256.929688 C 68.507812 246.515625 73.0625 237.441406 79.074219 229.667969 C 73.898438 216.609375 71.050781 202.371094 71.050781 187.46875 C 71.050781 124.222656 122.292969 72.949219 185.507812 72.949219 C 240.160156 72.949219 285.867188 111.28125 297.238281 162.542969 C 288.105469 177.910156 264.511719 186.410156 264.511719 186.410156 C 291.886719 187.296875 315.742188 172.503906 322.867188 167.972656 C 313.394531 100.542969 255.507812 48.65625 185.507812 48.65625 " fill-opacity="1" fill-rule="nonzero"/></g></svg>